<?xml version="1.0" encoding="utf-8"?>
<!-- Generator: Adobe Illustrator 19.1.0, SVG Export Plug-In . SVG Version: 6.00 Build 0)  -->
<svg version="1.1" id="Layer_1" xmlns="http://www.w3.org/2000/svg" xmlns:xlink="http://www.w3.org/1999/xlink" x="0px" y="0px"
	 viewBox="0 0 420 420" style="enable-background:new 0 0 420 420;" xml:space="preserve">
<style type="text/css">
	.st0{fill:#FFFFFF;}
	.st1{fill:#E83D8D;}
	.st2{fill:#1D1D1B;}
	.st3{fill:#0094A1;}
	.st4{fill:#00B1C1;}
</style>
<g>
	<path class="st0" d="M206.6,310.6c23.8,0,68.6,4.9,68.6,4.9c31.5-18.3,62.8-63.3,62.8-110.2c0-70.7-57.3-128-128-128
		s-128,57.3-128,128c0,49.2,29.1,82.4,65.3,110.8C147.3,316.1,185.1,310.6,206.6,310.6"/>
	<g>
		<g>
			<path class="st1" d="M177.1,110l-7.3,34.1c4.5-1.6,7.2-4.1,9.3-10.5h3.1c-2.9,9.7-8.5,12.5-13,13.8l-1.1,5.3
				c-2.2,10.5-8.4,12.5-13.2,12.5c-4.5,0-8.2-2.4-8.2-7.1c0-6.2,6.5-9.3,12-11l0.9-4c-3.1,3.5-6.3,4.1-8.8,4.1
				c-4.4,0-7.9-2.6-7.9-8.8c0-1.4,0.2-3,0.6-4.8l5-23.6H159l-5.3,25c-0.1,0.6-0.2,1.3-0.2,1.8c0,1.7,0.5,3.2,2.2,3.2
				c2.7,0,4.6-2.6,5.7-6l5.2-24.1H177.1z M153.2,159.4c1.5,0,3.3-2.2,4.3-6.5l0.4-2.1c-3.8,1.4-7.2,3.3-7.2,6.3
				C150.7,158,151.5,159.4,153.2,159.4z"/>
			<path class="st1" d="M207.7,121.1c0.3,0.1,0.6,0.1,0.8,0.1c3.4,0,8.2-2.2,11.3-4.4l0.7,2c-2.8,3-7.7,5.2-13,6.1
				c-1.2,13.6-8.5,22.2-17.6,22.2c-6.8,0-11.8-3.2-11.8-11.6c0-8.5,5-26.1,20.2-26.1C204.6,109.3,207.7,113.4,207.7,121.1z
				 M201.4,125.1c-1.5-0.4-2-1.6-2-3.1c0-2.1,1-3.4,2.3-4c-0.1-3.1-0.9-4.3-2.8-4.3c-5.2,0-9.8,13.5-9.8,20.7c0,4.9,1,6,3.8,6
				C196.4,140.5,200.2,133.8,201.4,125.1z"/>
			<path class="st1" d="M245.2,110l-5.3,25c-0.2,1-0.3,1.7-0.3,2.4c0,2.1,1,2.7,3,2.7c2.9,0,4.9-2.8,6-6.5h3.1
				c-4.2,12-10.8,13.6-14.8,13.6c-4.2,0-6.8-2.4-7.3-7c-3.7,6-7.8,7-10.9,7c-4.4,0-7.9-2.6-7.9-8.8c0-1.4,0.2-3,0.6-4.8l5-23.6H227
				l-5.3,25c-0.1,0.7-0.2,1.4-0.2,2.1c0,1.7,0.6,3,2.2,3c2.9,0,4.8-2.8,5.9-6.5l5-23.6H245.2z"/>
			<path class="st1" d="M264.2,110l-1,4.6c2.6-2.2,5.4-4.6,8.9-4.6c3.3,0,5.1,2.7,5.1,5.5c0,2.6-1.7,5.4-5.3,5.4
				c-4.1,0-2.1-4.9-4.3-4.9s-3.5,1.1-5.4,2.8l-5.9,28h-10.6l7.8-36.8H264.2z"/>
		</g>
		<g>
			<path class="st2" d="M94.5,207v-12.6h4.6c0.1,2.3,0.5,4,1.3,5.1c0.8,1.1,1.8,1.6,2.8,1.6c0.8,0,1.5-0.4,2.1-1.2
				c0.6-0.8,0.9-1.7,0.9-2.8c0-1.1-0.3-2.1-0.8-2.9s-1.6-1.6-3.1-2.6c-3.1-2.1-5.3-3.9-6.4-5.4c-1.1-1.6-1.7-3.7-1.7-6.4
				c0-3.2,0.7-5.7,2.2-7.5s3.2-2.7,5-2.7c2.2,0,3.8,1.1,5,3.4v-3.1h4.6v11.2h-4.6c-0.1-1.7-0.6-3.1-1.3-4c-0.7-0.9-1.6-1.4-2.6-1.4
				c-0.8,0-1.4,0.3-1.9,0.8c-0.5,0.5-0.8,1.3-0.8,2.1c0,0.8,0.2,1.5,0.6,2.2c0.4,0.7,1.7,1.6,3.8,2.9c2,1.2,3.5,2.3,4.6,3.3
				c1.1,1,1.9,2.3,2.5,3.8c0.6,1.6,0.9,3.4,0.9,5.4c0,3.6-0.8,6.4-2.3,8.2c-1.6,1.8-3.4,2.8-5.5,2.8c-2.4,0-4.2-1.2-5.5-3.6v3.1
				H94.5z"/>
			<path class="st2" d="M119.7,207v-6.2h4.1v-24.4h-4.1v8.6h-4.7v-14.8h24.6v14.8H135v-8.6h-4.2v24.4h4.1v6.2H119.7z"/>
			<path class="st2" d="M141.6,176.4v-6.2h12.9v6.2h-2.7V193c0,2.2,0.1,3.8,0.2,4.8s0.5,1.8,1.1,2.4c0.6,0.6,1.3,1,2.2,1
				c0.9,0,1.7-0.3,2.3-0.9c0.6-0.6,1-1.4,1.2-2.3s0.3-2.7,0.3-5.5v-16.2h-2.6v-6.2h10.8v6.2h-3.3v18.5c0,2.5-0.1,4.3-0.3,5.5
				c-0.2,1.1-0.6,2.3-1.3,3.4c-0.7,1.1-1.7,2-3,2.7c-1.3,0.7-2.9,1-4.6,1c-2,0-3.7-0.4-5.1-1.2c-1.4-0.8-2.5-1.8-3.1-3.1
				c-0.7-1.3-1.1-2.5-1.3-3.8c-0.2-1.3-0.3-3.4-0.3-6.4v-16.7H141.6z"/>
			<path class="st2" d="M168.8,207v-6.2h4.1v-24.4h-4.1v-6.2h12.8c2.7,0,4.9,0.2,6.5,0.7c1.6,0.5,3.2,1.4,4.7,3
				c1.5,1.5,2.7,3.6,3.6,6.2s1.4,5.5,1.4,8.6c0,2.6-0.3,5-1,7.3c-0.6,2.3-1.4,4.2-2.4,5.6c-0.9,1.4-2.1,2.6-3.4,3.4
				s-2.5,1.4-3.6,1.6c-1.1,0.2-2.8,0.4-5.1,0.4H168.8z M179.9,200.8h1.7c2.1,0,3.7-0.4,4.9-1.1c1.2-0.7,2.2-2,2.9-3.8
				c0.7-1.8,1.1-4.2,1.1-7.2c0-2.8-0.4-5.2-1.1-7.2s-1.7-3.3-3-4.1c-1.3-0.7-2.8-1.1-4.8-1.1h-1.7V200.8z"/>
			<path class="st2" d="M201.2,207v-6.2h3.3v-24.4h-3.3v-6.2H225v11.7h-5.2v-5.5h-8.4v8.5h6.8v6.2h-6.8v9.7h8.4v-5.5h5.2V207H201.2z
				"/>
			<path class="st2" d="M227.5,207v-6.2h3.6v-24.4h-3.6v-6.2h11.4l10,23v-16.8h-3.5v-6.2h12.2v6.2h-3.8v30.9h-6L236,179.9v20.8h3.4
				v6.2H227.5z"/>
			<path class="st2" d="M263.9,207v-6.2h4.1v-24.4h-4.1v8.6h-4.7v-14.8h24.6v14.8h-4.6v-8.6h-4.2v24.4h4.1v6.2H263.9z"/>
			<path class="st2" d="M287,207v-12.6h4.6c0.1,2.3,0.5,4,1.3,5.1s1.8,1.6,2.8,1.6c0.8,0,1.5-0.4,2.1-1.2c0.6-0.8,0.9-1.7,0.9-2.8
				c0-1.1-0.3-2.1-0.8-2.9s-1.6-1.6-3.1-2.6c-3.1-2.1-5.3-3.9-6.4-5.4c-1.1-1.6-1.7-3.7-1.7-6.4c0-3.2,0.7-5.7,2.2-7.5
				c1.5-1.8,3.2-2.7,5-2.7c2.2,0,3.8,1.1,5,3.4v-3.1h4.6v11.2H299c-0.1-1.7-0.6-3.1-1.3-4c-0.7-0.9-1.6-1.4-2.6-1.4
				c-0.8,0-1.4,0.3-1.9,0.8c-0.5,0.5-0.8,1.3-0.8,2.1c0,0.8,0.2,1.5,0.6,2.2c0.4,0.7,1.7,1.6,3.8,2.9c2,1.2,3.5,2.3,4.6,3.3
				c1.1,1,1.9,2.3,2.5,3.8c0.6,1.6,0.9,3.4,0.9,5.4c0,3.6-0.8,6.4-2.3,8.2s-3.4,2.8-5.5,2.8c-2.4,0-4.2-1.2-5.5-3.6v3.1H287z"/>
			<path class="st2" d="M310.1,188.8v-4c2.1-0.3,3.2-2,3.2-5.2v-0.5h-3.2v-9h6.5v8.3c0,2.6-0.2,4.6-0.6,6c-0.4,1.4-1.1,2.5-2.1,3.3
				S311.6,188.8,310.1,188.8z"/>
		</g>
		<g>
			<path class="st2" d="M140.1,223.2V217H153v6.2h-2.7v16.7c0,2.2,0.1,3.8,0.2,4.8c0.1,1,0.5,1.8,1.1,2.4c0.6,0.6,1.3,1,2.2,1
				c0.9,0,1.7-0.3,2.3-0.9c0.6-0.6,1-1.4,1.2-2.3s0.3-2.7,0.3-5.5v-16.2h-2.6V217h10.8v6.2h-3.3v18.5c0,2.5-0.1,4.3-0.3,5.5
				c-0.2,1.1-0.6,2.3-1.3,3.4c-0.7,1.1-1.7,2-3,2.7s-2.9,1-4.6,1c-2,0-3.7-0.4-5.1-1.2c-1.4-0.8-2.5-1.8-3.1-3.1s-1.1-2.5-1.3-3.8
				c-0.2-1.3-0.3-3.4-0.3-6.4v-16.7H140.1z"/>
			<path class="st2" d="M167.4,253.9v-6.2h3.6v-24.4h-3.6V217h11.4l10,23v-16.8h-3.5V217h12.2v6.2h-3.8v30.9h-6l-11.7-27.3v20.8h3.4
				v6.2H167.4z"/>
			<path class="st2" d="M198.8,253.9v-6.2h4.1v-24.4h-4.1V217h15.3v6.2H210v24.4h4.2v6.2H198.8z"/>
			<path class="st2" d="M232,216.4c4.7,0,8.4,1.8,11,5.5s4,8.2,4,13.4c0,5.3-1.3,9.8-4,13.5c-2.7,3.7-6.4,5.5-11,5.5
				c-4.8,0-8.6-1.9-11.2-5.7c-2.6-3.8-3.9-8.2-3.9-13.3c0-5.3,1.3-9.7,4-13.4C223.6,218.2,227.3,216.4,232,216.4z M232,223.1
				c-2.1,0-3.8,1.1-5.3,3.2c-1.4,2.1-2.2,5.2-2.2,9.3c0,3.6,0.7,6.5,2.1,8.7c1.4,2.2,3.2,3.3,5.3,3.3c2.1,0,3.8-1.1,5.3-3.2
				c1.5-2.1,2.2-5.2,2.2-9.2c0-3.6-0.7-6.5-2.1-8.7C236,224.2,234.2,223.1,232,223.1z"/>
			<path class="st2" d="M250.1,253.9v-6.2h3.6v-24.4h-3.6V217h11.4l10,23v-16.8H268V217h12.2v6.2h-3.8v30.9h-6l-11.7-27.3v20.8h3.4
				v6.2H250.1z"/>
		</g>
	</g>
	<g>
		<polygon class="st3" points="37.2,272.7 58.1,307.7 37.2,342.7 382.8,342.7 359.4,307.7 382.8,272.7 		"/>
		<polygon class="st4" points="37.2,265 58.2,300 37.2,334.9 382.8,334.9 359.4,300 382.8,265 		"/>
		<g>
			<path class="st0" d="M129.2,303.5c0,7.3,4,10.1,8.7,10.1c3.3,0,5-0.7,6.3-1.3l0.6,1.8c-0.9,0.5-3.2,1.5-7.2,1.5
				c-6.5,0-10.6-4.8-10.6-11.5c0-7.6,4.4-12.3,10.2-12.3c7.4,0,8.9,7,8.9,10.3c0,0.6,0,1-0.1,1.4H129.2z M143.7,301.7
				c0-3.2-1.3-8-6.8-8c-5,0-7.2,4.5-7.6,8H143.7z"/>
			<path class="st0" d="M151.8,281.5h2.2v33.7h-2.2V281.5z"/>
			<path class="st0" d="M162.2,303.5c0,7.3,4,10.1,8.7,10.1c3.3,0,5-0.7,6.3-1.3l0.6,1.8c-0.9,0.5-3.2,1.5-7.2,1.5
				c-6.5,0-10.6-4.8-10.6-11.5c0-7.6,4.4-12.3,10.2-12.3c7.4,0,8.9,7,8.9,10.3c0,0.6,0,1-0.1,1.4H162.2z M176.7,301.7
				c0-3.2-1.3-8-6.8-8c-5,0-7.2,4.5-7.6,8H176.7z"/>
			<path class="st0" d="M200.5,314.2c-1,0.5-3.4,1.5-6.6,1.5c-6.6,0-11-4.8-11-11.7c0-7.2,4.9-12.1,11.8-12.1c2.8,0,5.1,0.8,6,1.4
				l-0.8,1.8c-1.1-0.6-2.9-1.3-5.4-1.3c-6.1,0-9.2,4.7-9.2,10.1c0,5.9,3.7,9.8,9,9.8c2.7,0,4.5-0.8,5.7-1.3L200.5,314.2z"/>
			<path class="st0" d="M209.1,287.4v5h6.5v1.8h-6.5V309c0,2.9,0.9,4.7,3.3,4.7c1.2,0,2-0.2,2.6-0.4l0.3,1.8
				c-0.8,0.3-1.8,0.6-3.2,0.6c-1.7,0-3-0.6-3.9-1.7c-1-1.2-1.4-3.1-1.4-5.4v-14.4H203v-1.8h3.8v-4.2L209.1,287.4z"/>
			<path class="st0" d="M223.6,285.9c0,1-0.7,1.9-1.9,1.9c-1,0-1.8-0.9-1.8-1.9s0.8-2,1.8-2C222.9,283.9,223.6,284.8,223.6,285.9z
				 M220.6,315.2v-22.8h2.2v22.8H220.6z"/>
			<path class="st0" d="M250,303.5c0,8.5-5.8,12.1-10.9,12.1c-5.9,0-10.4-4.6-10.4-11.7c0-7.8,5.1-12.1,10.8-12.1
				C245.7,291.9,250,296.6,250,303.5z M230.9,303.8c0,5.7,3.7,10,8.3,10c4.7,0,8.5-4.3,8.5-10.1c0-4.2-2.4-10-8.3-10
				C233.6,293.7,230.9,298.9,230.9,303.8z"/>
			<path class="st0" d="M255.8,297.8c0-2.1-0.1-3.7-0.2-5.5h2.1l0.2,4.1h0.1c1.2-2.6,4.1-4.6,7.8-4.6c2.2,0,7.9,1.1,7.9,9.6v13.7
				h-2.2v-13.5c0-4.1-1.6-7.9-6.3-7.9c-3.2,0-5.9,2.3-6.8,5.2c-0.2,0.6-0.3,1.3-0.3,2v14.1h-2.2V297.8z"/>
			<path class="st0" d="M280.2,312.2c1.2,0.8,3.1,1.6,5.1,1.6c3.6,0,5.3-1.9,5.3-4.3c0-2.5-1.5-3.8-4.8-5.2
				c-3.7-1.4-5.8-3.5-5.8-6.2c0-3.3,2.6-6.2,7-6.2c2.1,0,3.8,0.6,5,1.4l-0.9,1.8c-0.8-0.6-2.2-1.4-4.5-1.4c-2.9,0-4.4,1.8-4.4,3.9
				c0,2.4,1.6,3.4,4.7,4.7c3.7,1.4,5.9,3.3,5.9,6.7c0,3.9-3,6.5-7.7,6.5c-2.2,0-4.3-0.7-5.8-1.6L280.2,312.2z"/>
		</g>
	</g>
</g>
</svg>
