<?xml version="1.0" encoding="utf-8"?>
<!-- Generator: Adobe Illustrator 18.1.1, SVG Export Plug-In . SVG Version: 6.00 Build 0)  -->
<svg version="1.1" id="Instagram" xmlns="http://www.w3.org/2000/svg" xmlns:xlink="http://www.w3.org/1999/xlink" x="0px" y="0px"
	 viewBox="215 19 530 522" enable-background="new 215 19 530 522" xml:space="preserve">
<path fill="#00B2E2" d="M676,28H284c-30.8,0-56,25.2-56,56v392c0,30.8,25.2,56,56,56h392c30.8,0,56-25.2,56-56V84
	C732,53.2,706.8,28,676,28z M479.6,434.6c85.7,0,155.1-69.5,155.1-155.1c0-9.5-1.2-18.6-2.9-27.6H676v202c0,10.7-8.7,19.3-19.4,19.3
	H303.4c-10.7,0-19.4-8.6-19.4-19.3V252h43.4c-1.7,9-2.9,18.1-2.9,27.6C324.5,365.2,393.9,434.6,479.6,434.6z M382.6,279.6
	c0-53.5,43.4-96.9,96.9-96.9c53.5,0,96.9,43.4,96.9,96.9s-43.4,96.9-96.9,96.9C426,376.5,382.6,333.1,382.6,279.6z M656.6,168h-45.2
	c-10.7,0-19.4-8.7-19.4-19.4v-45.3c0-10.7,8.7-19.3,19.3-19.3h45.2c10.8,0,19.4,8.7,19.4,19.3v45.2C676,159.3,667.3,168,656.6,168z"
	/>
</svg>
