<?xml version="1.0" encoding="utf-8"?>
<!-- Generator: Adobe Illustrator 19.0.0, SVG Export Plug-In . SVG Version: 6.00 Build 0)  -->
<svg version="1.1" id="Mail" xmlns="http://www.w3.org/2000/svg" xmlns:xlink="http://www.w3.org/1999/xlink" x="0px" y="0px"
	 viewBox="-36 132.5 20 20" style="enable-background:new -36 132.5 20 20;" xml:space="preserve">
<style type="text/css">
	.st0{fill:#FFFFFF;}
</style>
<path class="st0" d="M-34.4,137.7c0.5,0.3,7.2,3.9,7.5,4c0.3,0.1,0.6,0.2,0.9,0.2s0.7-0.1,0.9-0.2c0.3-0.1,7-3.8,7.5-4
	c0.5-0.3,1-1.3,0.1-1.3h-16.9C-35.4,136.5-34.9,137.5-34.4,137.7z M-17.4,139.9c-0.6,0.3-7.4,3.8-7.7,4c-0.3,0.2-0.6,0.2-0.9,0.2
	c-0.3,0-0.6,0-0.9-0.2c-0.3-0.2-7.1-3.7-7.7-4c-0.4-0.2-0.4,0-0.4,0.2c0,0.2,0,7.3,0,7.3c0,0.4,0.6,1,1,1h16c0.4,0,1-0.6,1-1
	c0,0,0-7.1,0-7.3S-17,139.7-17.4,139.9z"/>
</svg>
