<?xml version="1.0" encoding="utf-8"?>
<!-- Generator: Adobe Illustrator 19.1.0, SVG Export Plug-In . SVG Version: 6.00 Build 0)  -->
<svg version="1.1" id="Layer_1" xmlns="http://www.w3.org/2000/svg" xmlns:xlink="http://www.w3.org/1999/xlink" x="0px" y="0px"
	 viewBox="0 0 1133.9 204.5" style="enable-background:new 0 0 1133.9 204.5;" xml:space="preserve">
<style type="text/css">
	.st0{fill:#FFFFFF;}
</style>
<g>
	<g>
		<path class="st0" d="M375.9,188.5V185h-0.1c-0.9,1.4-2,2.5-3.4,3.1c-1.4,0.6-2.8,1-4.2,1c-1.8,0-3.3-0.2-4.5-0.7
			c-1.2-0.5-2.1-1.2-2.8-2c-0.7-0.9-1.1-2-1.4-3.2c-0.3-1.3-0.4-2.7-0.4-4.2v-15.3h6.8v14c0,2.1,0.3,3.6,1,4.6
			c0.6,1,1.8,1.5,3.4,1.5c1.9,0,3.2-0.6,4-1.7c0.8-1.1,1.2-2.9,1.2-5.5v-13h6.8v24.9H375.9z"/>
		<path class="st0" d="M390.4,163.6v3.5h0.1c0.9-1.4,2-2.5,3.4-3.1c1.4-0.7,2.8-1,4.2-1c1.8,0,3.3,0.2,4.5,0.7
			c1.2,0.5,2.1,1.2,2.8,2.1c0.7,0.9,1.1,2,1.4,3.2c0.3,1.3,0.4,2.7,0.4,4.2v15.3h-6.8v-14c0-2-0.3-3.6-1-4.6c-0.6-1-1.8-1.5-3.4-1.5
			c-1.9,0-3.2,0.6-4,1.7c-0.8,1.1-1.2,2.9-1.2,5.5v13H384v-24.9H390.4z"/>
		<path class="st0" d="M409,159.8v-5.6h6.8v5.6H409z M415.9,163.6v24.9H409v-24.9H415.9z"/>
		<path class="st0" d="M423.8,188.5l-8.5-24.9h7.2l5.2,17h0.1l5.2-17h6.8l-8.4,24.9H423.8z"/>
		<path class="st0" d="M446.3,182.5c1,1,2.5,1.5,4.4,1.5c1.4,0,2.6-0.3,3.6-1c1-0.7,1.6-1.4,1.8-2.2h6c-1,3-2.4,5.1-4.4,6.4
			c-2,1.3-4.4,1.9-7.2,1.9c-2,0-3.7-0.3-5.3-0.9c-1.6-0.6-2.9-1.5-4-2.7c-1.1-1.2-1.9-2.5-2.5-4.1c-0.6-1.6-0.9-3.4-0.9-5.3
			c0-1.9,0.3-3.6,0.9-5.2c0.6-1.6,1.5-3,2.6-4.2c1.1-1.2,2.5-2.1,4-2.8c1.6-0.7,3.3-1,5.2-1c2.1,0,4,0.4,5.5,1.2
			c1.6,0.8,2.9,1.9,3.9,3.3c1,1.4,1.7,2.9,2.2,4.7c0.4,1.8,0.6,3.6,0.5,5.5h-17.9C444.8,179.9,445.3,181.5,446.3,182.5z
			 M454.1,169.4c-0.8-0.9-2.1-1.3-3.7-1.3c-1.1,0-2,0.2-2.7,0.6c-0.7,0.4-1.3,0.8-1.7,1.4c-0.4,0.5-0.7,1.1-0.9,1.7
			c-0.2,0.6-0.3,1.2-0.3,1.6h11.1C455.4,171.7,454.9,170.3,454.1,169.4z"/>
		<path class="st0" d="M469.5,163.6v4.6h0.1c0.3-0.8,0.8-1.5,1.3-2.1c0.5-0.7,1.2-1.2,1.9-1.7c0.7-0.5,1.5-0.8,2.3-1.1
			c0.8-0.3,1.6-0.4,2.5-0.4c0.4,0,0.9,0.1,1.5,0.2v6.3c-0.3-0.1-0.7-0.1-1.2-0.2c-0.4,0-0.9-0.1-1.3-0.1c-1.2,0-2.3,0.2-3.2,0.6
			c-0.9,0.4-1.6,1-2.1,1.7c-0.5,0.7-0.9,1.6-1.1,2.5c-0.2,1-0.3,2-0.3,3.1v11.2H463v-24.9H469.5z"/>
		<path class="st0" d="M483.9,182.3c0.3,0.5,0.7,1,1.2,1.3c0.5,0.3,1,0.6,1.7,0.7c0.6,0.2,1.3,0.2,1.9,0.2c0.5,0,1-0.1,1.5-0.2
			c0.5-0.1,1-0.3,1.4-0.5c0.4-0.2,0.8-0.6,1.1-1c0.3-0.4,0.4-0.9,0.4-1.5c0-1-0.7-1.8-2-2.3c-1.4-0.5-3.3-1-5.7-1.5
			c-1-0.2-2-0.5-2.9-0.8c-0.9-0.3-1.8-0.7-2.5-1.2c-0.7-0.5-1.3-1.1-1.8-1.9c-0.4-0.8-0.7-1.7-0.7-2.8c0-1.6,0.3-2.9,0.9-3.9
			c0.6-1,1.4-1.8,2.5-2.4c1-0.6,2.2-1,3.5-1.2c1.3-0.2,2.6-0.4,3.9-0.4c1.3,0,2.7,0.1,3.9,0.4c1.3,0.3,2.4,0.7,3.4,1.3
			c1,0.6,1.8,1.4,2.5,2.4c0.7,1,1,2.3,1.2,3.8h-6.5c-0.1-1.3-0.6-2.2-1.5-2.7c-0.9-0.5-2-0.7-3.2-0.7c-0.4,0-0.8,0-1.2,0.1
			c-0.4,0-0.9,0.2-1.2,0.3c-0.4,0.2-0.7,0.4-0.9,0.7c-0.3,0.3-0.4,0.7-0.4,1.2c0,0.6,0.2,1.1,0.7,1.5c0.4,0.4,1,0.7,1.8,0.9
			c0.7,0.2,1.5,0.5,2.5,0.6c0.9,0.2,1.9,0.4,2.8,0.6c1,0.2,2,0.5,2.9,0.8c0.9,0.3,1.8,0.7,2.5,1.3c0.7,0.5,1.3,1.2,1.8,2
			c0.4,0.8,0.7,1.8,0.7,2.9c0,1.6-0.3,3-1,4.1c-0.7,1.1-1.5,2-2.6,2.7c-1.1,0.7-2.3,1.1-3.6,1.4c-1.4,0.3-2.7,0.4-4.2,0.4
			c-1.4,0-2.9-0.1-4.2-0.4c-1.4-0.3-2.6-0.8-3.7-1.4c-1.1-0.7-2-1.6-2.6-2.7c-0.7-1.1-1.1-2.5-1.1-4.2h6.5
			C483.4,181.1,483.6,181.8,483.9,182.3z"/>
		<path class="st0" d="M500.5,159.8v-5.6h6.8v5.6H500.5z M507.3,163.6v24.9h-6.8v-24.9H507.3z"/>
		<path class="st0" d="M522.8,163.6v4.6h-5v12.3c0,1.2,0.2,1.9,0.6,2.3c0.4,0.4,1.2,0.6,2.3,0.6c0.4,0,0.8,0,1.1,0
			c0.4,0,0.7-0.1,1-0.1v5.3c-0.6,0.1-1.2,0.2-1.9,0.2c-0.7,0-1.4,0-2.1,0c-1.1,0-2.1-0.1-3-0.2c-0.9-0.1-1.8-0.4-2.5-0.8
			c-0.7-0.4-1.3-1-1.7-1.8c-0.4-0.8-0.6-1.8-0.6-3v-14.7h-4.1v-4.6h4.1v-7.5h6.8v7.5H522.8z"/>
		<path class="st0" d="M531.6,195.9c-1.3,0.9-3.1,1.3-5.5,1.3c-0.7,0-1.4,0-2.1-0.1c-0.7,0-1.4-0.1-2.1-0.2v-5.6
			c0.6,0.1,1.3,0.1,2,0.2c0.7,0.1,1.3,0.1,2,0c0.9-0.1,1.6-0.4,2-1.1c0.4-0.6,0.6-1.3,0.6-2c0-0.5-0.1-1.1-0.3-1.5l-8.7-23.3h7.3
			l5.6,17h0.1l5.4-17h7.1l-10.4,27.9C534,193.6,532.9,195,531.6,195.9z"/>
		<path class="st0" d="M553.7,170.7c0.6-1.6,1.5-3,2.6-4.1c1.1-1.1,2.5-2,4-2.6c1.6-0.6,3.3-0.9,5.3-0.9c2,0,3.7,0.3,5.3,0.9
			c1.6,0.6,2.9,1.5,4.1,2.6c1.1,1.1,2,2.5,2.6,4.1c0.6,1.6,0.9,3.4,0.9,5.4c0,2-0.3,3.8-0.9,5.4c-0.6,1.6-1.5,3-2.6,4.1
			c-1.1,1.1-2.5,2-4.1,2.6c-1.6,0.6-3.4,0.9-5.3,0.9c-2,0-3.7-0.3-5.3-0.9c-1.6-0.6-2.9-1.5-4-2.6c-1.1-1.1-2-2.5-2.6-4.1
			c-0.6-1.6-0.9-3.4-0.9-5.4C552.8,174.1,553.1,172.3,553.7,170.7z M559.9,179c0.2,0.9,0.5,1.8,1,2.5c0.5,0.8,1.1,1.4,1.9,1.8
			c0.8,0.4,1.7,0.7,2.9,0.7c1.2,0,2.1-0.2,2.9-0.7c0.8-0.4,1.4-1,1.9-1.8c0.5-0.8,0.8-1.6,1-2.5c0.2-0.9,0.3-1.9,0.3-2.9
			c0-1-0.1-2-0.3-2.9c-0.2-1-0.5-1.8-1-2.5c-0.5-0.7-1.1-1.3-1.9-1.8c-0.8-0.5-1.8-0.7-2.9-0.7c-1.2,0-2.1,0.2-2.9,0.7
			c-0.8,0.5-1.4,1.1-1.9,1.8c-0.5,0.7-0.8,1.6-1,2.5c-0.2,1-0.3,1.9-0.3,2.9C559.6,177.1,559.7,178,559.9,179z"/>
		<path class="st0" d="M576.7,168.2v-4.6h4.1v-1.9c0-2.2,0.7-4,2.1-5.4c1.4-1.4,3.5-2.1,6.2-2.1c0.6,0,1.2,0,1.8,0.1
			c0.6,0,1.2,0.1,1.8,0.1v5.1c-0.8-0.1-1.6-0.1-2.5-0.1c-0.9,0-1.6,0.2-2,0.6c-0.4,0.4-0.6,1.2-0.6,2.2v1.5h4.7v4.6h-4.7v20.3h-6.8
			v-20.3H576.7z"/>
		<path class="st0" d="M625,190.3c-0.3,1.3-0.9,2.5-1.8,3.6c-0.9,1.1-2.2,2-3.9,2.8c-1.7,0.8-4,1.2-6.8,1.2c-1.2,0-2.5-0.2-3.7-0.5
			c-1.3-0.3-2.4-0.8-3.5-1.4c-1-0.6-1.9-1.5-2.6-2.5s-1.1-2.2-1.2-3.6h6.8c0.3,1.3,0.9,2.2,1.9,2.7c0.9,0.5,2,0.7,3.2,0.7
			c1.9,0,3.3-0.6,4.2-1.7c0.9-1.2,1.3-2.6,1.3-4.4v-3.3h-0.1c-0.7,1.3-1.8,2.3-3.1,2.9c-1.4,0.6-2.8,0.9-4.3,0.9
			c-1.9,0-3.5-0.3-4.8-1c-1.3-0.7-2.5-1.6-3.3-2.7c-0.9-1.1-1.5-2.5-1.9-4c-0.4-1.5-0.6-3.1-0.6-4.8c0-1.6,0.2-3.1,0.7-4.6
			c0.5-1.5,1.1-2.8,2-3.9c0.9-1.1,2-2,3.3-2.7c1.3-0.7,2.9-1,4.6-1c1.6,0,3.1,0.3,4.3,0.9c1.2,0.6,2.3,1.6,3.1,3.1h0.1v-3.3h6.5
			v23.3C625.4,187.9,625.2,189,625,190.3z M615.6,182c0.7-0.4,1.3-0.9,1.8-1.5c0.5-0.6,0.8-1.4,1.1-2.2s0.4-1.7,0.4-2.6
			c0-1-0.1-2-0.3-2.9c-0.2-0.9-0.5-1.7-1-2.4c-0.4-0.7-1-1.3-1.8-1.7c-0.7-0.4-1.7-0.6-2.8-0.6c-1,0-1.8,0.2-2.5,0.6
			c-0.7,0.4-1.3,0.9-1.7,1.6c-0.5,0.7-0.8,1.4-1,2.3c-0.2,0.8-0.3,1.7-0.3,2.7c0,0.9,0.1,1.8,0.3,2.7c0.2,0.9,0.5,1.7,0.9,2.4
			c0.4,0.7,1,1.3,1.7,1.7c0.7,0.4,1.6,0.7,2.6,0.7C614,182.6,614.9,182.4,615.6,182z"/>
		<path class="st0" d="M634.3,154.2v34.3h-6.8v-34.3H634.3z"/>
		<path class="st0" d="M636.2,170.7c0.6-1.6,1.5-3,2.6-4.1c1.1-1.1,2.5-2,4-2.6c1.6-0.6,3.3-0.9,5.3-0.9c2,0,3.7,0.3,5.3,0.9
			c1.6,0.6,2.9,1.5,4.1,2.6c1.1,1.1,2,2.5,2.6,4.1c0.6,1.6,0.9,3.4,0.9,5.4c0,2-0.3,3.8-0.9,5.4c-0.6,1.6-1.5,3-2.6,4.1
			c-1.1,1.1-2.5,2-4.1,2.6c-1.6,0.6-3.4,0.9-5.3,0.9c-2,0-3.7-0.3-5.3-0.9c-1.6-0.6-2.9-1.5-4-2.6c-1.1-1.1-2-2.5-2.6-4.1
			c-0.6-1.6-0.9-3.4-0.9-5.4C635.3,174.1,635.6,172.3,636.2,170.7z M642.4,179c0.2,0.9,0.5,1.8,1,2.5c0.5,0.8,1.1,1.4,1.9,1.8
			c0.8,0.4,1.7,0.7,2.9,0.7c1.2,0,2.1-0.2,2.9-0.7c0.8-0.4,1.4-1,1.9-1.8c0.5-0.8,0.8-1.6,1-2.5c0.2-0.9,0.3-1.9,0.3-2.9
			c0-1-0.1-2-0.3-2.9c-0.2-1-0.5-1.8-1-2.5c-0.5-0.7-1.1-1.3-1.9-1.8c-0.8-0.5-1.8-0.7-2.9-0.7c-1.2,0-2.1,0.2-2.9,0.7
			c-0.8,0.5-1.4,1.1-1.9,1.8c-0.5,0.7-0.8,1.6-1,2.5c-0.2,1-0.3,1.9-0.3,2.9C642.1,177.1,642.2,178,642.4,179z"/>
		<path class="st0" d="M678.6,188.5V185h-0.1c-0.9,1.4-2,2.5-3.4,3.1c-1.4,0.6-2.8,1-4.2,1c-1.8,0-3.3-0.2-4.5-0.7
			c-1.2-0.5-2.1-1.2-2.8-2c-0.7-0.9-1.1-2-1.4-3.2c-0.3-1.3-0.4-2.7-0.4-4.2v-15.3h6.8v14c0,2.1,0.3,3.6,1,4.6
			c0.6,1,1.8,1.5,3.4,1.5c1.9,0,3.2-0.6,4-1.7c0.8-1.1,1.2-2.9,1.2-5.5v-13h6.8v24.9H678.6z"/>
		<path class="st0" d="M698.6,168.1c-1.1,0-2,0.2-2.7,0.7c-0.7,0.5-1.3,1.1-1.8,1.9c-0.5,0.8-0.8,1.7-1,2.6
			c-0.2,0.9-0.3,1.9-0.3,2.8c0,0.9,0.1,1.8,0.3,2.7c0.2,0.9,0.5,1.8,0.9,2.5c0.4,0.8,1,1.4,1.8,1.9c0.7,0.5,1.6,0.7,2.7,0.7
			c1.6,0,2.9-0.5,3.8-1.4c0.9-0.9,1.4-2.1,1.7-3.7h6.6c-0.4,3.3-1.7,5.8-3.8,7.5c-2.1,1.7-4.8,2.6-8.1,2.6c-1.9,0-3.6-0.3-5.1-0.9
			c-1.6-0.6-2.9-1.5-4-2.6c-1.1-1.1-1.9-2.5-2.5-4c-0.6-1.6-0.9-3.3-0.9-5.1c0-1.9,0.3-3.7,0.8-5.4c0.6-1.7,1.4-3.1,2.5-4.3
			c1.1-1.2,2.4-2.1,4-2.8c1.6-0.7,3.4-1,5.4-1c1.5,0,2.9,0.2,4.3,0.6c1.4,0.4,2.6,1,3.7,1.8c1.1,0.8,1.9,1.8,2.6,2.9
			c0.7,1.2,1.1,2.6,1.2,4.2h-6.7C703.2,169.5,701.5,168.1,698.6,168.1z"/>
		<path class="st0" d="M718,182.5c1,1,2.5,1.5,4.4,1.5c1.4,0,2.6-0.3,3.6-1c1-0.7,1.6-1.4,1.8-2.2h6c-1,3-2.4,5.1-4.4,6.4
			c-2,1.3-4.4,1.9-7.2,1.9c-2,0-3.7-0.3-5.3-0.9c-1.6-0.6-2.9-1.5-4-2.7c-1.1-1.2-1.9-2.5-2.5-4.1c-0.6-1.6-0.9-3.4-0.9-5.3
			c0-1.9,0.3-3.6,0.9-5.2c0.6-1.6,1.5-3,2.6-4.2c1.1-1.2,2.5-2.1,4-2.8c1.6-0.7,3.3-1,5.2-1c2.1,0,4,0.4,5.5,1.2
			c1.6,0.8,2.9,1.9,3.9,3.3c1,1.4,1.7,2.9,2.2,4.7c0.4,1.8,0.6,3.6,0.5,5.5h-17.9C716.4,179.9,717,181.5,718,182.5z M725.7,169.4
			c-0.8-0.9-2.1-1.3-3.7-1.3c-1.1,0-2,0.2-2.7,0.6c-0.7,0.4-1.3,0.8-1.7,1.4c-0.4,0.5-0.7,1.1-0.9,1.7c-0.2,0.6-0.3,1.2-0.3,1.6
			h11.1C727.1,171.7,726.5,170.3,725.7,169.4z"/>
		<path class="st0" d="M740.4,182.3c0.3,0.5,0.7,1,1.2,1.3c0.5,0.3,1,0.6,1.7,0.7c0.6,0.2,1.3,0.2,1.9,0.2c0.5,0,1-0.1,1.5-0.2
			c0.5-0.1,1-0.3,1.4-0.5c0.4-0.2,0.8-0.6,1.1-1c0.3-0.4,0.4-0.9,0.4-1.5c0-1-0.7-1.8-2-2.3c-1.4-0.5-3.3-1-5.7-1.5
			c-1-0.2-2-0.5-2.9-0.8c-0.9-0.3-1.8-0.7-2.5-1.2c-0.7-0.5-1.3-1.1-1.8-1.9c-0.4-0.8-0.7-1.7-0.7-2.8c0-1.6,0.3-2.9,0.9-3.9
			c0.6-1,1.5-1.8,2.5-2.4c1-0.6,2.2-1,3.5-1.2c1.3-0.2,2.6-0.4,3.9-0.4s2.7,0.1,3.9,0.4c1.3,0.3,2.4,0.7,3.4,1.3
			c1,0.6,1.8,1.4,2.5,2.4c0.7,1,1,2.3,1.2,3.8h-6.5c-0.1-1.3-0.6-2.2-1.5-2.7c-0.9-0.5-2-0.7-3.2-0.7c-0.4,0-0.8,0-1.2,0.1
			c-0.4,0-0.9,0.2-1.2,0.3c-0.4,0.2-0.7,0.4-0.9,0.7c-0.3,0.3-0.4,0.7-0.4,1.2c0,0.6,0.2,1.1,0.7,1.5c0.4,0.4,1,0.7,1.8,0.9
			c0.7,0.2,1.5,0.5,2.5,0.6c0.9,0.2,1.9,0.4,2.8,0.6c1,0.2,2,0.5,2.9,0.8c0.9,0.3,1.8,0.7,2.5,1.3c0.7,0.5,1.3,1.2,1.8,2
			c0.4,0.8,0.7,1.8,0.7,2.9c0,1.6-0.3,3-1,4.1c-0.7,1.1-1.5,2-2.6,2.7c-1.1,0.7-2.3,1.1-3.6,1.4c-1.4,0.3-2.7,0.4-4.2,0.4
			c-1.4,0-2.9-0.1-4.2-0.4c-1.4-0.3-2.6-0.8-3.7-1.4c-1.1-0.7-2-1.6-2.6-2.7c-0.7-1.1-1.1-2.5-1.1-4.2h6.5
			C740,181.1,740.1,181.8,740.4,182.3z"/>
		<path class="st0" d="M770.5,163.6v4.6h-5v12.3c0,1.2,0.2,1.9,0.6,2.3c0.4,0.4,1.2,0.6,2.3,0.6c0.4,0,0.8,0,1.1,0
			c0.4,0,0.7-0.1,1-0.1v5.3c-0.6,0.1-1.2,0.2-1.9,0.2c-0.7,0-1.4,0-2.1,0c-1.1,0-2.1-0.1-3-0.2c-0.9-0.1-1.8-0.4-2.5-0.8
			c-0.7-0.4-1.3-1-1.7-1.8c-0.4-0.8-0.6-1.8-0.6-3v-14.7h-4.1v-4.6h4.1v-7.5h6.8v7.5H770.5z"/>
		<path class="st0" d="M777.5,182.5c1,1,2.5,1.5,4.4,1.5c1.4,0,2.6-0.3,3.6-1c1-0.7,1.6-1.4,1.8-2.2h6c-1,3-2.4,5.1-4.4,6.4
			c-2,1.3-4.4,1.9-7.2,1.9c-2,0-3.7-0.3-5.3-0.9s-2.9-1.5-4-2.7c-1.1-1.2-1.9-2.5-2.5-4.1c-0.6-1.6-0.9-3.4-0.9-5.3
			c0-1.9,0.3-3.6,0.9-5.2c0.6-1.6,1.5-3,2.6-4.2c1.1-1.2,2.5-2.1,4-2.8c1.6-0.7,3.3-1,5.2-1c2.1,0,4,0.4,5.5,1.2
			c1.6,0.8,2.9,1.9,3.9,3.3c1,1.4,1.7,2.9,2.2,4.7c0.4,1.8,0.6,3.6,0.5,5.5h-17.9C775.9,179.9,776.5,181.5,777.5,182.5z
			 M785.2,169.4c-0.8-0.9-2.1-1.3-3.7-1.3c-1.1,0-2,0.2-2.7,0.6c-0.7,0.4-1.3,0.8-1.7,1.4c-0.4,0.5-0.7,1.1-0.9,1.7
			c-0.2,0.6-0.3,1.2-0.3,1.6h11.1C786.6,171.7,786,170.3,785.2,169.4z"/>
		<path class="st0" d="M800.7,163.6v4.6h0.1c0.3-0.8,0.8-1.5,1.3-2.1c0.5-0.7,1.2-1.2,1.9-1.7c0.7-0.5,1.5-0.8,2.3-1.1
			c0.8-0.3,1.6-0.4,2.5-0.4c0.4,0,0.9,0.1,1.5,0.2v6.3c-0.3-0.1-0.7-0.1-1.2-0.2c-0.4,0-0.9-0.1-1.3-0.1c-1.2,0-2.3,0.2-3.2,0.6
			c-0.9,0.4-1.6,1-2.1,1.7c-0.5,0.7-0.9,1.6-1.1,2.5c-0.2,1-0.3,2-0.3,3.1v11.2h-6.8v-24.9H800.7z"/>
		<path class="st0" d="M815,182.3c0.3,0.5,0.7,1,1.2,1.3c0.5,0.3,1,0.6,1.7,0.7c0.6,0.2,1.3,0.2,1.9,0.2c0.5,0,1-0.1,1.5-0.2
			c0.5-0.1,1-0.3,1.4-0.5c0.4-0.2,0.8-0.6,1.1-1c0.3-0.4,0.4-0.9,0.4-1.5c0-1-0.7-1.8-2-2.3c-1.4-0.5-3.3-1-5.7-1.5
			c-1-0.2-2-0.5-2.9-0.8c-0.9-0.3-1.8-0.7-2.5-1.2c-0.7-0.5-1.3-1.1-1.8-1.9c-0.4-0.8-0.7-1.7-0.7-2.8c0-1.6,0.3-2.9,0.9-3.9
			c0.6-1,1.5-1.8,2.5-2.4c1-0.6,2.2-1,3.5-1.2c1.3-0.2,2.6-0.4,3.9-0.4s2.7,0.1,3.9,0.4c1.3,0.3,2.4,0.7,3.4,1.3
			c1,0.6,1.8,1.4,2.5,2.4c0.7,1,1,2.3,1.2,3.8h-6.5c-0.1-1.3-0.6-2.2-1.5-2.7c-0.9-0.5-2-0.7-3.2-0.7c-0.4,0-0.8,0-1.2,0.1
			c-0.4,0-0.9,0.2-1.2,0.3c-0.4,0.2-0.7,0.4-0.9,0.7c-0.3,0.3-0.4,0.7-0.4,1.2c0,0.6,0.2,1.1,0.7,1.5c0.4,0.4,1,0.7,1.8,0.9
			c0.7,0.2,1.5,0.5,2.5,0.6c0.9,0.2,1.9,0.4,2.8,0.6c1,0.2,2,0.5,2.9,0.8c0.9,0.3,1.8,0.7,2.5,1.3c0.7,0.5,1.3,1.2,1.8,2
			c0.4,0.8,0.7,1.8,0.7,2.9c0,1.6-0.3,3-1,4.1c-0.7,1.1-1.5,2-2.6,2.7c-1.1,0.7-2.3,1.1-3.6,1.4c-1.4,0.3-2.7,0.4-4.2,0.4
			c-1.4,0-2.9-0.1-4.2-0.4c-1.4-0.3-2.6-0.8-3.7-1.4c-1.1-0.7-2-1.6-2.6-2.7c-0.7-1.1-1.1-2.5-1.1-4.2h6.5
			C814.6,181.1,814.7,181.8,815,182.3z"/>
		<path class="st0" d="M838.3,154.2v12.9h0.1c0.9-1.4,2-2.5,3.3-3.1c1.3-0.7,2.7-1,3.9-1c1.8,0,3.3,0.2,4.5,0.7
			c1.2,0.5,2.1,1.2,2.8,2.1c0.7,0.9,1.1,2,1.4,3.2c0.3,1.3,0.4,2.7,0.4,4.2v15.3H848v-14c0-2-0.3-3.6-1-4.6c-0.6-1-1.8-1.5-3.4-1.5
			c-1.9,0-3.2,0.6-4,1.7c-0.8,1.1-1.2,2.9-1.2,5.5v13h-6.8v-34.3H838.3z"/>
		<path class="st0" d="M856.6,159.8v-5.6h6.8v5.6H856.6z M863.4,163.6v24.9h-6.8v-24.9H863.4z"/>
		<path class="st0" d="M871.7,163.6v4.6h0.1c0.3-0.8,0.8-1.5,1.3-2.1c0.5-0.7,1.2-1.2,1.9-1.7c0.7-0.5,1.5-0.8,2.3-1.1
			c0.8-0.3,1.6-0.4,2.5-0.4c0.4,0,0.9,0.1,1.5,0.2v6.3c-0.3-0.1-0.7-0.1-1.2-0.2c-0.4,0-0.9-0.1-1.3-0.1c-1.2,0-2.3,0.2-3.2,0.6
			c-0.9,0.4-1.6,1-2.1,1.7c-0.5,0.7-0.9,1.6-1.1,2.5c-0.2,1-0.3,2-0.3,3.1v11.2h-6.8v-24.9H871.7z"/>
		<path class="st0" d="M886.7,182.5c1,1,2.5,1.5,4.4,1.5c1.4,0,2.6-0.3,3.6-1c1-0.7,1.6-1.4,1.8-2.2h6c-1,3-2.4,5.1-4.4,6.4
			c-2,1.3-4.4,1.9-7.2,1.9c-2,0-3.7-0.3-5.3-0.9s-2.9-1.5-4-2.7c-1.1-1.2-1.9-2.5-2.5-4.1c-0.6-1.6-0.9-3.4-0.9-5.3
			c0-1.9,0.3-3.6,0.9-5.2c0.6-1.6,1.5-3,2.6-4.2c1.1-1.2,2.5-2.1,4-2.8c1.6-0.7,3.3-1,5.2-1c2.1,0,4,0.4,5.5,1.2
			c1.6,0.8,2.9,1.9,3.9,3.3c1,1.4,1.7,2.9,2.2,4.7c0.4,1.8,0.6,3.6,0.5,5.5H885C885.1,179.9,885.7,181.5,886.7,182.5z M894.4,169.4
			c-0.8-0.9-2.1-1.3-3.7-1.3c-1.1,0-2,0.2-2.7,0.6c-0.7,0.4-1.3,0.8-1.7,1.4c-0.4,0.5-0.7,1.1-0.9,1.7c-0.2,0.6-0.3,1.2-0.3,1.6
			h11.1C895.8,171.7,895.3,170.3,894.4,169.4z"/>
	</g>
	<g>
		<g>
			<g>
				<g>
					<path class="st0" d="M1012,8.1c-6.3-0.6-17.4,0.8-27.6,5.1l0,0c-10.2,4.3-18.8,11.3-22.8,16.3c-4,4.9,0.5,11.3,0.5,11.3
						s34.5,34.2,40.6,39.9c2.3,2.2,4.8,2.6,6.5,2.7c1.5,0.3,3.2,0.1,4.7-0.6c1.3-0.6,2.4-1.4,3.3-2.4c1.3-1.3,2.5-3.6,2.5-7.2
						c0.2-8.3,0.1-56.8,0.1-56.8S1018.4,8.7,1012,8.1z"/>
					<path class="st0" d="M948.9,41.4c-4.9,4-11.8,12.8-16,23h0c-4.2,10.3-5.4,21.3-4.8,27.6c0.6,6.3,8.3,7.7,8.3,7.7
						s48.6,0.1,56.9-0.1c3.2-0.1,5.2-1.6,6.6-2.7c1.3-0.9,2.3-2.2,3-3.7c0.5-1.3,0.7-2.7,0.6-4c0-1.9-0.8-4.3-3.3-6.9
						c-5.7-6-39.9-40.5-39.9-40.5S953.8,37.4,948.9,41.4z"/>
				</g>
				<g>
					<path class="st0" d="M1030.6,8c6.3-0.6,17.4,0.8,27.6,5.1l0,0c10.2,4.3,18.8,11.3,22.8,16.3c4,5-0.5,11.3-0.5,11.3
						s-34.5,34.2-40.6,39.8c-2.3,2.2-4.8,2.6-6.6,2.7c-1.5,0.3-3.2,0.1-4.7-0.6c-1.3-0.6-2.4-1.4-3.3-2.4c-1.3-1.3-2.5-3.6-2.5-7.2
						c-0.2-8.3-0.1-56.8-0.1-56.8S1024.3,8.5,1030.6,8z"/>
					<path class="st0" d="M1093.7,41.2c4.9,4,11.8,12.8,16,23l0,0c4.2,10.3,5.5,21.3,4.8,27.6c-0.6,6.3-8.3,7.7-8.3,7.7
						s-48.6,0.1-56.9-0.1c-3.2-0.1-5.2-1.6-6.6-2.6c-1.3-0.9-2.3-2.2-3-3.7c-0.5-1.3-0.7-2.7-0.6-4c0-1.8,0.8-4.3,3.3-6.9
						c5.7-6,39.9-40.5,39.9-40.5S1088.8,37.2,1093.7,41.2z"/>
				</g>
			</g>
			<g>
				<g>
					<path class="st0" d="M1030.1,193.7c6.3,0.6,17.4-0.7,27.6-5.1l0,0c10.2-4.3,18.9-11.3,22.9-16.2c4-5-0.5-11.3-0.5-11.3
						s-34.4-34.3-40.5-39.9c-2.3-2.2-4.8-2.6-6.5-2.8c-1.5-0.3-3.2-0.1-4.7,0.6c-1.3,0.6-2.4,1.4-3.3,2.4c-1.3,1.3-2.5,3.6-2.5,7.2
						c-0.2,8.3-0.2,56.8-0.2,56.8S1023.7,193.1,1030.1,193.7z"/>
					<path class="st0" d="M1093.2,160.5c4.9-4,11.8-12.7,16.1-23l0,0c4.3-10.3,5.5-21.3,4.9-27.6c-0.6-6.3-8.2-7.7-8.2-7.7
						s-48.6-0.2-56.9,0c-3.2,0.1-5.2,1.6-6.6,2.6c-1.3,0.9-2.3,2.2-3,3.7c-0.6,1.3-0.7,2.7-0.6,4c0,1.9,0.8,4.3,3.3,6.9
						c5.7,6.1,39.8,40.6,39.8,40.6S1088.3,164.6,1093.2,160.5z"/>
				</g>
				<g>
					<path class="st0" d="M1011.4,193.8c-6.3,0.5-17.4-0.8-27.6-5.2v0c-10.2-4.4-18.8-11.4-22.8-16.3c-4-5,0.5-11.3,0.5-11.3
						s34.5-34.1,40.7-39.8c2.3-2.1,4.8-2.5,6.6-2.7c1.6-0.3,3.2-0.1,4.7,0.6c1.3,0.6,2.4,1.4,3.3,2.5c1.3,1.3,2.4,3.6,2.5,7.2
						c0.1,8.3-0.1,56.8-0.1,56.8S1017.8,193.2,1011.4,193.8z"/>
					<path class="st0" d="M948.4,160.4c-4.9-4.1-11.8-12.8-16-23.1l0,0c-4.2-10.3-5.4-21.3-4.8-27.7c0.6-6.3,8.3-7.7,8.3-7.7
						s48.6,0,56.9,0.3c3.2,0.1,5.2,1.6,6.6,2.7c1.3,0.9,2.3,2.2,3,3.7c0.5,1.3,0.7,2.7,0.6,4c0,1.9-0.8,4.3-3.3,6.9
						c-5.7,6-40,40.4-40,40.4S953.3,164.4,948.4,160.4z"/>
				</g>
			</g>
		</g>
		<g>
			<path class="st0" d="M38.3,113c0.1,8.8,7.5,12.4,15.5,12.4c5.8,0,13.2-2.3,13.2-9.4c0-6.1-8.4-8.3-22.9-11.4
				C32.5,102,20.8,97.9,20.8,85c0-18.8,16.2-23.6,32-23.6c16.1,0,30.9,5.4,32.5,23.5H66.1c-0.6-7.8-6.5-10-13.8-10
				c-4.6,0-11.2,0.9-11.2,6.8c0,7.3,11.4,8.3,22.9,11c11.8,2.7,23.4,7,23.4,20.6c0,19.4-16.8,25.6-33.6,25.6
				c-17.1,0-33.7-6.4-34.6-25.9H38.3z"/>
			<path class="st0" d="M116.9,63.3h14.8v13.5h-14.8v36.5c0,6.8,1.7,8.5,8.5,8.5c2.1,0,4.1-0.1,6.3-0.6v15.8
				c-3.4,0.6-7.8,0.7-11.8,0.7c-12.4,0-23.2-2.8-23.2-17.5V76.8H84.4V63.3h12.2V41.2h20.2V63.3z"/>
			<path class="st0" d="M202.6,136.9h-19.2v-10.2H183c-5.1,8.3-13.9,12.2-22.5,12.2c-21.5,0-26.9-12.1-26.9-30.3V63.3h20.2v41.6
				c0,12.1,3.6,18.1,13,18.1c11,0,15.7-6.1,15.7-21.1V63.3h20.2V136.9z"/>
		</g>
		<g>
			<path class="st0" d="M538.7,35.5h20.2v21.8c0.4,12.7-8.4,22.4-20.2,23.9v-9.4c7.3-2.4,9.4-7.4,9.4-14.4h-9.4V35.5z"/>
			<path class="st0" d="M662,137.2h-19.2v-10.2h-0.4c-5.1,8.3-13.9,12.2-22.5,12.2c-21.5,0-26.9-12.1-26.9-30.3V63.5h20.2v41.6
				c0,12.1,3.6,18.1,13,18.1c11,0,15.7-6.1,15.7-21.1V63.5H662V137.2z"/>
			<path class="st0" d="M664.5,63.5h19.2v10.3h0.4c5.1-8.3,14-12.2,22.5-12.2c21.5,0,26.9,12.1,26.9,30.3v45.3h-20.2V95.6
				c0-12.1-3.6-18.1-13-18.1c-11,0-15.7,6.1-15.7,21.1v38.6h-20.2V63.5z"/>
			<path class="st0" d="M756.9,52.2h-20.2V35.5h20.2V52.2z M736.7,63.5h20.2v73.6h-20.2V63.5z"/>
			<path class="st0" d="M795.8,61.6c23.2,0,38.2,15.4,38.2,38.9c0,23.3-14.9,38.7-38.2,38.7c-23.1,0-38-15.4-38-38.7
				C757.8,76.9,772.7,61.6,795.8,61.6z M795.8,123.9c13.8,0,17.9-11.8,17.9-23.5c0-11.8-4.1-23.6-17.9-23.6
				c-13.7,0-17.8,11.8-17.8,23.6C778,112.1,782.1,123.9,795.8,123.9z"/>
			<path class="st0" d="M835.7,63.5h19.2v10.3h0.4c5.1-8.3,14-12.2,22.5-12.2c21.5,0,26.9,12.1,26.9,30.3v45.3h-20.2V95.6
				c0-12.1-3.6-18.1-13-18.1c-11,0-15.7,6.1-15.7,21.1v38.6h-20.2V63.5z"/>
		</g>
		<g>
			<path class="st0" d="M261,127.7h-0.3c-4.7,8-13,11.4-22.4,11.4c-22.2,0-33-19.1-33-39.4c0-19.8,11-38.2,32.6-38.2
				c8.7,0,17.2,3.7,21.9,11h-0.1h0.3v-37h20.2v101.7H261V127.7z M243.4,76.7c-13.2,0-17.8,11.4-17.8,23.5c0,11.5,5.3,23.6,17.8,23.6
				c13.4,0,17.4-11.7,17.4-23.8C260.8,88.1,256.5,76.7,243.4,76.7z"/>
			<path class="st0" d="M301.6,105.2c0.6,12.8,6.8,18.7,18.1,18.7c8.1,0,14.7-5,15.9-9.5h17.8c-5.7,17.4-17.8,24.8-34.5,24.8
				c-23.2,0-37.6-15.9-37.6-38.7c0-22.1,15.2-38.9,37.6-38.9c25.1,0,37.2,21.1,35.7,43.7H301.6z M334.5,92.4
				c-1.9-10.3-6.3-15.7-16.1-15.7c-12.8,0-16.5,10-16.8,15.7H334.5z"/>
			<path class="st0" d="M356.1,63.5h19.2v10.3h0.4c5.1-8.3,14-12.2,22.5-12.2c21.5,0,26.9,12.1,26.9,30.3v45.3H405V95.5
				c0-12.1-3.6-18.1-13-18.1c-11,0-15.7,6.1-15.7,21.1v38.6h-20.2V63.5z"/>
			<path class="st0" d="M455.7,63.5h14.8V77h-14.8v36.5c0,6.8,1.7,8.5,8.5,8.5c2.1,0,4.1-0.1,6.3-0.6v15.8
				c-3.4,0.6-7.8,0.7-11.8,0.7c-12.4,0-23.2-2.8-23.2-17.5V77h-12.2V63.5h12.2V41.4h20.2V63.5z"/>
			<path class="st0" d="M490.1,113.2c0.1,8.8,7.5,12.4,15.5,12.4c5.8,0,13.2-2.3,13.2-9.4c0-6.1-8.4-8.3-22.9-11.4
				c-11.7-2.6-23.3-6.7-23.3-19.6c0-18.8,16.2-23.6,32-23.6c16.1,0,30.9,5.4,32.5,23.5h-19.2c-0.6-7.8-6.5-10-13.8-10
				c-4.6,0-11.2,0.9-11.2,6.8c0,7.3,11.4,8.3,22.9,11c11.8,2.7,23.3,7,23.3,20.6c0,19.4-16.8,25.6-33.6,25.6
				c-17.1,0-33.7-6.4-34.6-25.9H490.1z"/>
		</g>
	</g>
</g>
</svg>
