<?xml version="1.0" encoding="utf-8"?>
<!-- Generator: Adobe Illustrator 18.1.1, SVG Export Plug-In . SVG Version: 6.00 Build 0)  -->
<svg version="1.1" id="Twitter" xmlns="http://www.w3.org/2000/svg" xmlns:xlink="http://www.w3.org/1999/xlink" x="0px" y="0px"
	 viewBox="0 0 547.7 444.9" enable-background="new 0 0 547.7 444.9" xml:space="preserve">
<path fill="#FFFFFF" d="M491.6,110.8c0.2,4.8,0.3,9.7,0.3,14.5c0,148.5-113,319.7-319.7,319.7C108.8,445,49.7,426.4,0,394.5
	c8.8,1,17.7,1.6,26.8,1.6c52.7,0,101.1-18,139.5-48.1c-49.1-0.9-90.7-33.4-104.9-78c6.8,1.3,13.9,2,21.1,2c10.3,0,20.2-1.3,29.6-3.9
	C60.7,257.7,22,212.3,22,157.9c0-0.5,0-0.9,0-1.4c15.1,8.4,32.5,13.5,50.9,14.1c-30.2-20.2-50-54.5-50-93.5
	c0-20.6,5.5-39.9,15.2-56.5c55.4,68,138.2,112.7,231.6,117.4c-1.9-8.2-2.9-16.8-2.9-25.6C266.8,50.3,317.1,0,379.2,0
	c32.3,0,61.5,13.6,82,35.4c25.6-5.1,49.6-14.4,71.3-27.3c-8.4,26.2-26.2,48.2-49.4,62.1c22.7-2.7,44.3-8.7,64.5-17.7
	C532.6,75.2,513.5,95,491.6,110.8z"/>
</svg>
