<?xml version="1.0" encoding="utf-8"?>
<!-- Generator: Adobe Illustrator 19.1.0, SVG Export Plug-In . SVG Version: 6.00 Build 0)  -->
<svg version="1.1" id="Layer_1" xmlns="http://www.w3.org/2000/svg" xmlns:xlink="http://www.w3.org/1999/xlink" x="0px" y="0px"
	 viewBox="0 0 1024 768" style="enable-background:new 0 0 1024 768;" xml:space="preserve">
<style type="text/css">
	.st0{fill:#FFFFFF;}
</style>
<g>
	<g>
		<g>
			<path class="st0" d="M161.5,214.2v21h-8.6v-21l-11-25.2h9.3l6,15l5.9-15h9.3L161.5,214.2z"/>
			<path class="st0" d="M201.6,201.2v22.2c0,8.4-4.8,12.4-14.4,12.4c-7.6,0-13.5-4.3-13.5-12.4v-22.2c0-8.4,5-12.6,14.3-12.6
				C196.6,188.6,201.6,193,201.6,201.2z M193.4,201.5c0-4.2-2.4-5.9-5.7-5.9c-3,0-5.9,1-5.9,5.5v22.4c0,4.2,3.4,5.3,5.9,5.3
				c3,0,5.7-1.1,5.7-5.5V201.5z"/>
			<path class="st0" d="M235.2,189v34.2c0,8.4-4.7,12.5-14.3,12.5c-7.8,0-13.7-4.4-13.7-12.5V189h8.2v34c0,4.2,3.5,5.3,6,5.3
				c3,0,5.7-1,5.7-5.5V189H235.2z"/>
			<path class="st0" d="M253.9,218.5h-4.5v16.7H241V189h13.6c11.4,0,14.5,7.3,14.5,14.5c0,6.6-2.8,10.9-6.8,13.1l9.9,18.7h-9.5
				L253.9,218.5z M249.4,210h4.1c4.6,0,7.4-1.7,7.4-6.9c0-4.6-2.9-6.4-7.8-6.4h-3.8V210z"/>
			<path class="st0" d="M313.8,189v34.2c0,8.4-4.7,12.5-14.3,12.5c-7.8,0-13.7-4.4-13.7-12.5V189h8.2v34c0,4.2,3.5,5.3,6,5.3
				c3,0,5.7-1,5.7-5.5V189H313.8z"/>
			<path class="st0" d="M348.6,189v46.2h-7.7l-14.2-30.8v30.8H319V189h7.6v0.1l14.2,30.8v-31H348.6z"/>
			<path class="st0" d="M363.9,235.2h-9.3V189h9.3V235.2z"/>
			<path class="st0" d="M396.9,201.2v22.2c0,8.4-4.8,12.4-14.4,12.4c-7.6,0-13.5-4.3-13.5-12.4v-22.2c0-8.4,5-12.6,14.3-12.6
				C391.9,188.6,396.9,193,396.9,201.2z M388.7,201.5c0-4.2-2.4-5.9-5.7-5.9c-3,0-5.9,1-5.9,5.5v22.4c0,4.2,3.4,5.3,5.9,5.3
				c3,0,5.7-1.1,5.7-5.5V201.5z"/>
			<path class="st0" d="M431.3,189v46.2h-7.7l-14.2-30.8v30.8h-7.6V189h7.6v0.1l14.2,30.8v-31H431.3z"/>
			<path class="st0" d="M445.2,227.3v7.9h-7.9v-7.9H445.2z"/>
			<path class="st0" d="M479.6,214.2v21H471v-21L460,189h9.3l6,15l5.9-15h9.3L479.6,214.2z"/>
			<path class="st0" d="M519.7,201.2v22.2c0,8.4-4.8,12.4-14.4,12.4c-7.6,0-13.5-4.3-13.5-12.4v-22.2c0-8.4,5-12.6,14.3-12.6
				C514.7,188.6,519.7,193,519.7,201.2z M511.5,201.5c0-4.2-2.4-5.9-5.7-5.9c-3,0-5.9,1-5.9,5.5v22.4c0,4.2,3.4,5.3,5.9,5.3
				c3,0,5.7-1.1,5.7-5.5V201.5z"/>
			<path class="st0" d="M553.3,189v34.2c0,8.4-4.7,12.5-14.3,12.5c-7.8,0-13.7-4.4-13.7-12.5V189h8.2v34c0,4.2,3.5,5.3,6,5.3
				c3,0,5.7-1,5.7-5.5V189H553.3z"/>
			<path class="st0" d="M572,218.5h-4.5v16.7h-8.4V189h13.6c11.4,0,14.5,7.3,14.5,14.5c0,6.6-2.8,10.9-6.8,13.1l9.9,18.7h-9.5
				L572,218.5z M567.5,210h4.1c4.6,0,7.4-1.7,7.4-6.9c0-4.6-2.9-6.4-7.8-6.4h-3.8V210z"/>
			<path class="st0" d="M630,237.9l-4.3-3.6c-2.1,0.9-4.8,1.4-8.3,1.4c-8.9,0-13.5-4.3-13.5-12.4v-22.2c0-8.3,4.6-12.6,14.1-12.6
				c8.8,0,13.7,4.4,13.7,12.6v22.2c0,2.2-0.3,4.1-1,5.9l4.1,3.3L630,237.9z M619.1,228.9l-2.8-2.3l4.7-5.6l2.5,2.1
				c0-0.1,0-0.1,0-0.2l-0.1-21.7c0-3.9-1.8-5.8-5.5-5.8c-3.5,0-6,1.2-6,6.5v20.6c0,4.1,1.6,6.5,5.5,6.5
				C618,229,618.7,229,619.1,228.9z"/>
			<path class="st0" d="M664.1,189v34.2c0,8.4-4.7,12.5-14.3,12.5c-7.8,0-13.7-4.4-13.7-12.5V189h8.2v34c0,4.2,3.5,5.3,6,5.3
				c3,0,5.7-1,5.7-5.5V189H664.1z"/>
			<path class="st0" d="M677.4,196.6v10.2h13.8v7.6h-13.8v13.4h17.1v7.5h-26V189h25.4v7.5H677.4z"/>
			<path class="st0" d="M715.4,205.1v-4.3c0-3.3-2.2-5.2-4.9-5.2c-3.1,0-5.4,1.6-5.4,5.9c0,3.8,2.1,4.9,6.8,6.8
				c4.9,2.1,12.4,5.4,12.4,15c0,8.1-4.6,12.4-13.8,12.4c-11.3,0-14.5-4.4-14.5-15.6h8.9c0,6.1,1,8.6,5.6,8.6c2.8,0,4.9-1.8,4.9-5.4
				c-0.1-4.4-3.6-6.4-8.4-8.4c-7.4-3.2-10.7-6.3-10.7-13.9s5.7-12.5,14.3-12.5c8.4,0,13.5,4.4,13.5,12.5v4H715.4z"/>
			<path class="st0" d="M750.6,196.4H742v38.9h-8.4v-38.9h-8.6V189h25.7V196.4z"/>
			<path class="st0" d="M764.1,235.2h-9.3V189h9.3V235.2z"/>
			<path class="st0" d="M797.1,201.2v22.2c0,8.4-4.8,12.4-14.4,12.4c-7.6,0-13.5-4.3-13.5-12.4v-22.2c0-8.4,5-12.6,14.3-12.6
				C792.2,188.6,797.1,193,797.1,201.2z M789,201.5c0-4.2-2.4-5.9-5.7-5.9c-3,0-5.9,1-5.9,5.5v22.4c0,4.2,3.4,5.3,5.9,5.3
				c3,0,5.7-1.1,5.7-5.5V201.5z"/>
			<path class="st0" d="M831.6,189v46.2h-7.7l-14.2-30.8v30.8H802V189h7.6v0.1l14.2,30.8v-31H831.6z"/>
			<path class="st0" d="M856.1,205.1v-4.3c0-3.3-2.2-5.2-4.9-5.2c-3.1,0-5.4,1.6-5.4,5.9c0,3.8,2.1,4.9,6.8,6.8
				c4.9,2.1,12.4,5.4,12.4,15c0,8.1-4.6,12.4-13.8,12.4c-11.3,0-14.5-4.4-14.5-15.6h8.9c0,6.1,1,8.6,5.6,8.6c2.8,0,4.9-1.8,4.9-5.4
				c-0.1-4.4-3.6-6.4-8.4-8.4c-7.4-3.2-10.7-6.3-10.7-13.9s5.7-12.5,14.3-12.5c8.4,0,13.5,4.4,13.5,12.5v4H856.1z"/>
			<path class="st0" d="M877.4,227.3v7.9h-7.9v-7.9H877.4z"/>
		</g>
		<g>
			<g>
				<path class="st0" d="M637.3,328.8h-14.2l-2.7,11h-10l15.1-56.2h9.5l15.3,56.2h-10L637.3,328.8z M635,319.7l-4.9-19.2l-4.9,19.2
					H635z"/>
				<path class="st0" d="M689.7,283.6v56.2h-9.4L663,302.3v37.5h-9.3v-56.2h9.3v0.1l17.3,37.5v-37.7H689.7z"/>
				<path class="st0" d="M733,283.6v56.2h-9.4l-17.3-37.5v37.5H697v-56.2h9.3v0.1l17.3,37.5v-37.7H733z"/>
				<path class="st0" d="M774.5,283.6v41.7c0,10.2-5.7,15.2-17.5,15.2c-9.4,0-16.7-5.3-16.7-15.2v-41.7h10V325
					c0,5.2,4.3,6.4,7.3,6.4c3.7,0,6.9-1.3,6.9-6.7v-41.1H774.5z"/>
				<path class="st0" d="M803.1,328.8h-14.2l-2.7,11h-10l15.1-56.2h9.5l15.3,56.2h-10L803.1,328.8z M800.8,319.7l-4.9-19.2
					l-4.9,19.2H800.8z"/>
				<path class="st0" d="M846.3,330v9.8h-27.6v-0.1v-56h11.9V330H846.3z"/>
				<path class="st0" d="M620.1,373.3l0.2,27.3c0,5.1,4.1,6.4,7.1,6.4c3.7,0,7-1.3,7-6.7v-6.1h-7v-9.2h17v15.4
					c0,10.1-5.8,15.1-17.4,15.1c-9.5,0-16.6-5.2-16.6-15.1v-27c0-10.1,6.1-15.3,17.4-15.3c10.5,0,16.6,5.4,16.6,15.3v4.6h-10v-4.1
					c0-5.2-3-7.2-6.8-7.2C623.9,366.6,620.1,367.9,620.1,373.3z"/>
				<path class="st0" d="M660.1,367.7V380h16.8v9.3h-16.8v16.3h20.8v9.1h-31.6v-56.2h30.9v9.1H660.1z"/>
				<path class="st0" d="M721.6,358.5v56.2h-9.4l-17.3-37.5v37.5h-9.3v-56.2h9.3v0.1l17.3,37.5v-37.7H721.6z"/>
				<path class="st0" d="M739,367.7V380h16.8v9.3H739v16.3h20.8v9.1h-31.6v-56.2H759v9.1H739z"/>
				<path class="st0" d="M779.9,394.4h-5.5v20.4h-10.3v-56.2h16.6c13.9,0,17.7,8.9,17.7,17.6c0,8-3.4,13.3-8.2,15.9l12.1,22.7h-11.5
					L779.9,394.4z M774.4,384h4.9c5.6,0,9.1-2.1,9.1-8.4c0-5.5-3.5-7.8-9.4-7.8h-4.6V384z"/>
				<path class="st0" d="M831.8,403.7h-14.2l-2.7,11h-10l15.1-56.2h9.5l15.3,56.2h-10L831.8,403.7z M829.5,394.6l-4.9-19.2
					l-4.9,19.2H829.5z"/>
				<path class="st0" d="M875,404.9v9.8h-27.6v-0.1v-56h11.9v46.4H875z"/>
				<path class="st0" d="M653.9,433.5v56.2h-10.6v-33.9l-8.6,22.5h-5l-8.7-22.5v33.9h-10.6v-56.2H621v0.1l11.2,27l11.2-27v-0.1
					H653.9z"/>
				<path class="st0" d="M672.1,442.6V455h16.8v9.3h-16.8v16.3h20.8v9.1h-31.6v-56.2h30.9v9.1H672.1z"/>
				<path class="st0" d="M709.2,442.6V455h16.8v9.3h-16.8v16.3H730v9.1h-31.6v-56.2h30.9v9.1H709.2z"/>
				<path class="st0" d="M765.2,442.4h-10.5v47.3h-10.3v-47.3H734v-8.9h31.2V442.4z"/>
				<path class="st0" d="M781.7,489.7h-11.3v-56.2h11.3V489.7z"/>
				<path class="st0" d="M823.8,433.5v56.2h-9.4l-17.3-37.5v37.5h-9.3v-56.2h9.3v0.1l17.3,37.5v-37.7H823.8z"/>
				<path class="st0" d="M839.7,448.2l0.2,27.3c0,5.1,4.1,6.4,7.1,6.4c3.7,0,7-1.3,7-6.7v-6.1h-7v-9.2h17v15.4
					c0,10.1-5.8,15.1-17.4,15.1c-9.5,0-16.6-5.2-16.6-15.1v-27c0-10.1,6.1-15.3,17.4-15.3c10.5,0,16.6,5.4,16.6,15.3v4.6h-10v-4.1
					c0-5.2-3-7.2-6.8-7.2C843.5,441.6,839.7,442.8,839.7,448.2z"/>
			</g>
			<g>
				<path class="st0" d="M179.4,458h69.1v31.6H142.2c0-1.9-3.2-25.5,4.8-46c7.4-19.1,18.9-34,39.9-50c16.7-13,25.3-29,26.1-35.4
					c0.5-4.8,0.5-18.1,0.5-18.1c0-13.3-4.3-20.2-17.3-20.2c-10.6,0-18.9,6.6-18.9,23.4v14.9h-35.1v-16.2c0-31.9,16.2-53.7,53.7-53.7
					c39.1,0,52.6,22.3,52.6,53.7c0,0,0.3,15.2-0.5,21.3c-2.9,18.6-14.1,38.3-37.2,54.5C199.1,426.3,180.5,443.6,179.4,458z"/>
				<path class="st0" d="M368.7,342.6v96c0,35.9-16.7,53.4-53.2,53.4c-32.2,0-50.8-18.3-50.8-53.4v-96c0-36.2,17.8-54.2,53.2-54.2
					C350.6,288.4,368.7,307.5,368.7,342.6z M334.4,341c0-16.7-4.5-25.5-17-25.5c-12.2,0-18.6,5.8-18.6,29l-0.5,93.3
					c0,17.3,4.8,27.4,17.3,27.4c12,0,18.9-5.3,18.9-26.3V341z"/>
				<path class="st0" d="M440.5,290.2v199.4h-33V319.2l-27.6,10.1v-28.7l25.5-10.4H440.5z"/>
				<path class="st0" d="M569.4,419.4V438c0,35.9-17,54-54,54c-31.6,0-51.6-18.6-51.6-54v-14.6c1.1-22.9,4-48.7,18.1-77.4
					c14.9-30.3,35.9-52.4,55.8-63l15.7,22.9C520.3,333.5,508,366,508,366s7.4-3.2,14.6-3.2C553.2,364.4,569.4,388.6,569.4,419.4z
					 M535.9,438.6v-20.5c0-19.4-6.9-25.8-18.6-25.8c-20.7,0-18.6,25.8-18.6,32.7l-0.3,12.5c0,17.5,2.1,26.9,17.5,26.9
					C531.7,464.3,535.9,459.8,535.9,438.6z"/>
			</g>
		</g>
	</g>
	<g>
		<path class="st0" d="M173.7,539.9v38.7h-7.3v-23.3l-5.9,15.5H157l-6-15.5v23.3h-7.3v-38.7h7.3v0.1l7.7,18.6l7.7-18.6v-0.1H173.7z"
			/>
		<path class="st0" d="M201.3,550.1v18.6c0,7-4,10.4-12.1,10.4c-6.4,0-11.3-3.6-11.3-10.4v-18.6c0-7,4.2-10.5,12-10.5
			C197.2,539.5,201.3,543.2,201.3,550.1z M194.5,550.4c0-3.5-2-4.9-4.7-4.9c-2.5,0-4.9,0.9-4.9,4.6v18.8c0,3.5,2.8,4.4,4.9,4.4
			c2.5,0,4.7-0.9,4.7-4.6V550.4z"/>
		<path class="st0" d="M230.2,539.9v38.7h-6.4l-11.9-25.8v25.8h-6.4v-38.7h6.4v0.1l11.9,25.8v-25.9H230.2z"/>
		<path class="st0" d="M251,572.4h13.4v6.1h-20.6c0-0.4-0.6-4.9,0.9-8.9c1.4-3.7,3.7-6.6,7.7-9.7c3.2-2.5,4.9-5.6,5.1-6.9
			c0.1-0.9,0.1-3.5,0.1-3.5c0-2.6-0.8-3.9-3.4-3.9c-2.1,0-3.7,1.3-3.7,4.5v2.9h-6.8V550c0-6.2,3.1-10.4,10.4-10.4
			c7.6,0,10.2,4.3,10.2,10.4c0,0,0.1,2.9-0.1,4.1c-0.6,3.6-2.7,7.4-7.2,10.6C254.8,566.3,251.2,569.7,251,572.4z"/>
		<path class="st0" d="M275.5,546.7v7.4c1.5-0.8,3-1.5,5.9-1.3c7.2,0.6,7.8,6.8,7.9,8.7c0.2,1.2,0.1,7.7,0.1,8
			c-0.3,5.5-2.8,9.5-10.5,9.5c-7.4,0-10.6-4.9-10.6-10.9h6.9c0.1,3,0.9,4.9,3.8,4.9c2.7,0,3.2-1.4,3.5-4c0-0.4,0.4-6.6-0.3-8.3
			c-0.7-1.8-3.2-2-4.9-1.3c-1.9,0.8-2.2,2.8-2.2,2.8h-6.6v-22.3h20.5v6.8H275.5z"/>
		<path class="st0" d="M314,539.9v27.4v1.5c0,8.9-4.3,10.7-10.8,10.7c-0.6,0-1.2-0.1-1.8-0.1v-7.6c4.4,0.7,5.1-0.2,5.1-5.5v-26.5
			H314z"/>
		<path class="st0" d="M334.9,571h-9.8l-1.9,7.6h-6.9l10.4-38.7h6.5l10.5,38.7h-6.9L334.9,571z M333.3,564.7l-3.4-13.2l-3.4,13.2
			H333.3z"/>
		<path class="st0" d="M370.9,539.9v38.7h-6.4l-11.9-25.8v25.8h-6.4v-38.7h6.4v0.1l11.9,25.8v-25.9H370.9z"/>
		<path class="st0" d="M384.4,578.6l10.6-38.7h6.6L391,578.6H384.4z"/>
		<path class="st0" d="M404.9,578.6l10.6-38.7h6.6l-10.6,38.7H404.9z"/>
		<path class="st0" d="M449.7,578.6h-7.5v-38.7h21.3v6.3h-13.8v10h11.5v6.3h-11.5V578.6z"/>
		<path class="st0" d="M488.2,565.8v2.8c0,7-3.6,10.4-11.6,10.4c-6.5,0-11.2-3.6-11.2-10.4V550c0-7,4-10.5,11.8-10.5
			c7.2,0,11.1,3.8,11.1,10.5v2.9h-6.8v-2.5c0-3.5-1.9-4.9-4.4-4.9s-4.8,0.9-4.8,4.6v18.8c0,3.5,2.6,4.4,4.7,4.4
			c2.4,0,4.5-0.9,4.5-4.6v-2.8H488.2z"/>
		<path class="st0" d="M516.4,539.9v38.7h-7.6v-14.2h-9.5v14.2h-7.6v-38.7h7.6V558h9.5v-18.1H516.4z"/>
		<path class="st0" d="M551,546h-7.2v32.5h-7.1V546h-7.2v-6.1H551V546z"/>
		<path class="st0" d="M575.8,565.8v2.8c0,7-3.6,10.4-11.6,10.4c-6.5,0-11.2-3.6-11.2-10.4V550c0-7,4-10.5,11.8-10.5
			c7.2,0,11.1,3.8,11.1,10.5v2.9h-6.8v-2.5c0-3.5-1.9-4.9-4.4-4.9c-2.6,0-4.8,0.9-4.8,4.6v18.8c0,3.5,2.6,4.4,4.7,4.4
			c2.4,0,4.5-0.9,4.5-4.6v-2.8H575.8z"/>
		<path class="st0" d="M599.5,550.1v18.6c0,7-3.2,10.4-10.3,10.4c-6.2,0-9.8-3.6-9.8-10.4v-18.6c0-7,3.5-10.5,10.3-10.5
			C596,539.5,599.5,543.3,599.5,550.1z M592.8,549.8c0-3.2-0.9-4.9-3.3-4.9c-2.4,0-3.6,1.1-3.6,5.6l-0.1,18.1c0,3.3,0.9,5.3,3.4,5.3
			c2.3,0,3.7-1,3.7-5.1V549.8z"/>
		<path class="st0" d="M623.4,550.1v18.6c0,7-3.2,10.4-10.3,10.4c-6.2,0-9.8-3.6-9.8-10.4v-18.6c0-7,3.5-10.5,10.3-10.5
			C619.9,539.5,623.4,543.3,623.4,550.1z M616.7,549.8c0-3.2-0.9-4.9-3.3-4.9c-2.4,0-3.6,1.1-3.6,5.6l-0.1,18.1
			c0,3.3,0.9,5.3,3.4,5.3c2.3,0,3.7-1,3.7-5.1V549.8z"/>
		<path class="st0" d="M647.6,565v3.6c0,7-3.3,10.5-10.5,10.5c-6.1,0-10-3.6-10-10.5v-2.8c0.2-4.4,0.8-9.4,3.5-15
			c2.9-5.9,7-10.2,10.8-12.2l3,4.4c-6.4,5.4-8.8,11.6-8.8,11.6s1.4-0.6,2.8-0.6C644.5,554.3,647.6,559,647.6,565z M641.1,568.7v-4
			c0-3.8-1.3-5-3.6-5c-4,0-3.6,5-3.6,6.3l-0.1,2.4c0,3.4,0.4,5.2,3.4,5.2C640.3,573.7,641.1,572.8,641.1,568.7z"/>
		<path class="st0" d="M674.9,567.1c0,3.7-1,6.6-3,8.6c-2,1.9-4.5,2.9-7.9,2.9h-13.4v-38.7h10.7c9.7,0,11.4,5.5,11.4,9.7
			c0,3.1-1,5.7-3.5,7.4c0.6,0.3,1.2,0.7,1.8,1.1C672.8,559.7,674.9,562.4,674.9,567.1z M660.8,545.7h-3.7v9.3h3.7c3,0,5-1.9,5-4.7
			C665.8,548,664.6,545.7,660.8,545.7z M667.8,566.7c0-4-2.4-6.4-7.6-6.4h-3.1v12.6h3.5C664.9,572.8,667.8,571.7,667.8,566.7z"/>
		<path class="st0" d="M686.6,578.6l10.6-38.7h6.6l-10.6,38.7H686.6z"/>
		<path class="st0" d="M707.1,578.6l10.6-38.7h6.6l-10.6,38.7H707.1z"/>
		<path class="st0" d="M742.9,546.7v7.4c1.5-0.8,3-1.5,5.9-1.3c7.2,0.6,7.8,6.8,7.9,8.7c0.2,1.2,0.1,7.7,0.1,8
			c-0.3,5.5-2.8,9.5-10.5,9.5c-7.4,0-10.6-4.9-10.6-10.9h6.9c0.1,3,0.9,4.9,3.8,4.9c2.7,0,3.2-1.4,3.5-4c0-0.4,0.4-6.6-0.3-8.3
			c-0.7-1.8-3.2-2-4.9-1.3c-1.9,0.8-2.2,2.8-2.2,2.8H736v-22.3h20.5v6.8H742.9z"/>
		<path class="st0" d="M767,552.2v6.6h-6.6v-6.6H767z M767,570.9v6.6h-6.6v-6.6H767z"/>
		<path class="st0" d="M792,563.7c0.2,1.1,0.1,5.6,0.1,5.9c-0.2,5.6-2.8,9.5-10.2,9.5c-7.3,0-10.4-4.2-10.4-10.4v-3h6.8v2.7
			c0.1,2.7,0.7,4.8,3.7,4.8c2.7,0,3.2-1.2,3.4-3.3c0-0.2,0.2-3.7-0.2-5.6c-0.4-1.9-2.2-2.3-6-2.3v-6c3.8,0,5.6-0.6,6-2.5
			c0.4-1.8,0.2-4.4,0.2-4.7c-0.2-2.1-0.8-3.2-3.5-3.2c-2.7,0-3.6,2-3.6,4.8v2.7h-6.8v-3c0-6.2,3.2-10.5,10.4-10.5
			c7.5,0,10,4,10.2,9.5c0,0.4,0.2,4-0.1,5.2c-0.1,1.3-0.9,3.5-3,4.8C791.1,559.9,791.9,562.3,792,563.7z"/>
		<path class="st0" d="M815.2,550.1v18.6c0,7-3.2,10.4-10.3,10.4c-6.2,0-9.8-3.6-9.8-10.4v-18.6c0-7,3.5-10.5,10.3-10.5
			C811.7,539.5,815.2,543.3,815.2,550.1z M808.5,549.8c0-3.2-0.9-4.9-3.3-4.9c-2.4,0-3.6,1.1-3.6,5.6l-0.1,18.1
			c0,3.3,0.9,5.3,3.4,5.3c2.3,0,3.7-1,3.7-5.1V549.8z"/>
		<path class="st0" d="M842.5,552.7c0,7-3.5,13.3-11.5,13.3h-4.8v12.5h-7.2v-38.7h6.5h4.9C839.8,539.9,842.5,546.5,842.5,552.7z
			 M835.6,552.4c0-3.7-1.2-6-6.5-6h-2.9v12.5h3.4C834.8,558.9,835.6,556,835.6,552.4z"/>
		<path class="st0" d="M875.2,539.9v38.7h-7.3v-23.3l-5.9,15.5h-3.5l-6-15.5v23.3h-7.3v-38.7h7.3v0.1l7.7,18.6l7.7-18.6v-0.1H875.2z
			"/>
	</g>
</g>
</svg>
